<svg xmlns="http://www.w3.org/2000/svg" width="1200" height="630" viewBox="0 0 1200 630" role="img" aria-label="Checklist met waar je op moet letten bij het kiezen van een webdesigner.">
  <defs>
    <linearGradient id="bg" x1="0%" y1="0%" x2="100%" y2="100%">
      <stop offset="0%" stop-color="#0D1117"/>
      <stop offset="100%" stop-color="#161B22"/>
    </linearGradient>
  </defs>
  <rect width="1200" height="630" fill="url(#bg)"/>
  <text x="600" y="90" text-anchor="middle" fill="#F0F6FC" font-family="Inter, system-ui, sans-serif" font-size="36" font-weight="700">Checklist Webdesigner Kiezen</text>
  <g transform="translate(300, 160)">
    <rect x="0" y="0" width="600" height="70" rx="12" fill="#1C2128" stroke="#30363D" stroke-width="2"/>
    <circle cx="45" cy="35" r="18" fill="#FF5722" opacity="0.2"/>
    <path d="M35 35 L42 42 L55 28" stroke="#FF5722" stroke-width="4" fill="none" stroke-linecap="round" stroke-linejoin="round"/>
    <text x="90" y="41" fill="#F0F6FC" font-family="Inter, system-ui, sans-serif" font-size="22" font-weight="600">Portfolio met eerdere werk</text>
  </g>
  <g transform="translate(300, 250)">
    <rect x="0" y="0" width="600" height="70" rx="12" fill="#1C2128" stroke="#30363D" stroke-width="2"/>
    <circle cx="45" cy="35" r="18" fill="#7C4DFF" opacity="0.2"/>
    <path d="M35 35 L42 42 L55 28" stroke="#7C4DFF" stroke-width="4" fill="none" stroke-linecap="round" stroke-linejoin="round"/>
    <text x="90" y="41" fill="#F0F6FC" font-family="Inter, system-ui, sans-serif" font-size="22" font-weight="600">Directe communicatie</text>
  </g>
  <g transform="translate(300, 340)">
    <rect x="0" y="0" width="600" height="70" rx="12" fill="#1C2128" stroke="#30363D" stroke-width="2"/>
    <circle cx="45" cy="35" r="18" fill="#00E5FF" opacity="0.2"/>
    <path d="M35 35 L42 42 L55 28" stroke="#00E5FF" stroke-width="4" fill="none" stroke-linecap="round" stroke-linejoin="round"/>
    <text x="90" y="41" fill="#F0F6FC" font-family="Inter, system-ui, sans-serif" font-size="22" font-weight="600">SEO &amp; responsive inbegrepen</text>
  </g>
  <g transform="translate(300, 430)">
    <rect x="0" y="0" width="600" height="70" rx="12" fill="#1C2128" stroke="#30363D" stroke-width="2"/>
    <circle cx="45" cy="35" r="18" fill="#FF5722" opacity="0.2"/>
    <path d="M35 35 L42 42 L55 28" stroke="#FF5722" stroke-width="4" fill="none" stroke-linecap="round" stroke-linejoin="round"/>
    <text x="90" y="41" fill="#F0F6FC" font-family="Inter, system-ui, sans-serif" font-size="22" font-weight="600">Transparante prijzen</text>
  </g>
</svg>